<svg width="38" height="37" viewBox="0 0 38 37" fill="none" xmlns="http://www.w3.org/2000/svg">
<path d="M18.9828 36.6552C8.9611 36.6552 0.827587 28.5217 0.827587 18.5C0.827587 8.47837 8.9611 0.344849 18.9828 0.344849C29.0044 0.344849 37.1379 8.47837 37.1379 18.5C37.1379 28.5217 29.0044 36.6552 18.9828 36.6552ZM18.9828 2.76554C10.2925 2.76554 3.24828 9.80974 3.24828 18.5C3.24828 27.1903 10.2925 34.2345 18.9828 34.2345C27.673 34.2345 34.7172 27.1903 34.7172 18.5C34.7172 9.80974 27.673 2.76554 18.9828 2.76554Z" fill="#F3E4D9"/>
<path d="M18.189 17.8276C12.6803 17.7093 7.24434 16.5735 2.17241 14.4794L3.15525 12.3142C3.34939 12.3971 22.7756 20.679 32.6282 9.75867L34.4483 11.3204C29.9345 16.3369 23.8555 17.8276 18.189 17.8276Z" fill="#F3E4D9"/>
<path d="M6.45867 28.5862L4.86207 26.9747C5.58668 26.4341 22.8422 13.9244 37.1379 21.727L35.8238 23.5187C23.0633 16.5535 6.61833 28.4907 6.45867 28.5862Z" fill="#F3E4D9"/>
<path d="M19.1031 36.6552L17.4382 35.0953C29.845 17.553 17.5026 2.69704 16.9655 2.07804L18.5016 0.344849C18.6412 0.518168 32.7238 17.4168 19.1031 36.6552Z" fill="#F3E4D9"/>
</svg>
