<svg width="37" height="37" viewBox="0 0 37 37" fill="none" xmlns="http://www.w3.org/2000/svg">
<g clip-path="url(#clip0_1345_463)">
<path fill-rule="evenodd" clip-rule="evenodd" d="M0 11.4384V25.3868C0 31.5051 4.97529 36.4804 11.0936 36.4804H25.042C31.1602 36.4804 36.1355 31.5051 36.1355 25.3868V11.4384C36.1355 5.32014 31.1602 0.344849 25.042 0.344849H11.0936C4.97529 0.344849 0 5.32014 0 11.4384ZM3.59442 11.9297C3.59442 7.52334 7.17849 3.93926 11.5849 3.93926H24.5455C28.9519 3.93926 32.5359 7.52334 32.5359 11.9297V24.8903C32.5359 29.2967 28.9519 32.8808 24.5455 32.8808H11.5849C7.17849 32.8808 3.59442 29.2967 3.59442 24.8903V11.9297ZM13.1106 18.4152C13.1106 21.1459 15.3345 23.3698 18.0652 23.3698C20.7959 23.3698 23.0198 21.1459 23.0198 18.4152C23.0198 15.6845 20.7959 13.4606 18.0652 13.4606C15.3345 13.4606 13.1106 15.6845 13.1106 18.4152ZM9.83681 18.4152C9.83681 13.8743 13.5295 10.1868 18.0652 10.1868C22.6009 10.1868 26.2935 13.8795 26.2935 18.4152C26.2935 22.9509 22.6009 26.6436 18.0652 26.6436C13.5295 26.6436 9.83681 22.9509 9.83681 18.4152ZM27.3382 6.89755C28.5019 6.89755 29.4484 7.84399 29.4484 9.00765C29.4484 10.1713 28.5071 11.1178 27.3382 11.1178C26.1694 11.1178 25.2281 10.1713 25.2281 9.00765C25.2281 7.84399 26.1746 6.89755 27.3382 6.89755Z" fill="#F3E4D9"/>
</g>
<defs>
<clipPath id="clip0_1345_463">
<rect width="36.1355" height="36.1355" fill="white" transform="translate(0 0.344849)"/>
</clipPath>
</defs>
</svg>
