<svg width="38" height="37" viewBox="0 0 38 37" fill="none" xmlns="http://www.w3.org/2000/svg">
<g clip-path="url(#clip0_1345_471)">
<path d="M13.1423 37C13.1518 35.4723 13.1652 33.9447 13.169 32.417C13.1814 26.586 13.1928 20.7541 13.1985 14.9231C13.1985 14.0306 13.1652 13.1381 13.148 12.2446C13.1471 12.1864 13.148 12.1271 13.148 12.0708C13.2614 12.0348 21.0441 12.0222 21.2814 12.0591V15.5272C21.2919 15.5301 21.3024 15.533 21.3119 15.536C21.3443 15.4893 21.3767 15.4437 21.4082 15.3971C22.0783 14.39 22.8789 13.513 23.8759 12.8332C24.8701 12.1553 25.9615 11.7357 27.1434 11.558C28.6742 11.3278 30.1897 11.4065 31.669 11.8717C34.03 12.6137 35.7372 14.1491 36.82 16.4061C37.2823 17.3686 37.5663 18.3912 37.7474 19.445C37.8808 20.219 37.9704 20.9979 37.9762 21.7855C37.9762 21.8428 37.9924 21.9011 38.0009 21.9584V37H29.8628C29.8628 36.9786 29.8647 36.9573 29.8647 36.9359C29.8647 32.4287 29.8647 27.9214 29.8618 23.4151C29.8618 22.7635 29.7999 22.1157 29.6712 21.4767C29.5435 20.8405 29.3433 20.2316 29.003 19.6771C28.5369 18.9186 27.8812 18.4184 27.0338 18.1834C26.4304 18.0163 25.8175 17.9853 25.198 18.0513C24.6404 18.1105 24.1095 18.2621 23.6262 18.5553C22.9075 18.9914 22.3594 19.6023 21.9315 20.3278C21.6436 20.8153 21.432 21.3339 21.3567 21.903C21.3005 22.3303 21.2824 22.7596 21.2824 23.1898C21.2824 27.7233 21.2824 32.2577 21.2824 36.7912C21.2824 36.8611 21.2824 36.931 21.2814 37.001H13.1432L13.1423 37Z" fill="#F3ECE6"/>
<path d="M0.475632 37C0.478491 36.9252 0.482304 36.8495 0.482304 36.7747C0.482304 28.611 0.482304 20.4463 0.482304 12.2825C0.482304 12.2087 0.482304 12.1349 0.482304 12.0514H8.60807C8.61379 12.0844 8.62237 12.1194 8.62523 12.1553C8.62809 12.2087 8.62618 12.2631 8.62618 12.3165C8.62618 20.4647 8.62618 28.6129 8.62618 36.7611C8.62618 36.8407 8.61856 36.9214 8.61379 37.001H0.475632V37Z" fill="#F3ECE6"/>
<path d="M4.52759 8.63302C3.84798 8.64079 3.16837 8.54755 2.53261 8.25814C1.13907 7.62299 0.291705 6.54498 0.0572252 4.99206C-0.0628741 4.19958 0.000988222 3.42167 0.29933 2.67871C0.768289 1.51233 1.61852 0.738297 2.76899 0.308065C3.55536 0.0137972 4.37413 -0.0435024 5.20339 0.0283649C5.7648 0.0769239 6.31002 0.201235 6.81805 0.455684C8.12961 1.11317 8.90931 2.17564 9.12568 3.65475C9.23434 4.39479 9.20384 5.12803 8.94934 5.83505C8.52613 7.0092 7.71022 7.80169 6.58643 8.27271C5.93351 8.54658 5.24533 8.64079 4.52854 8.63496L4.52759 8.63302Z" fill="#F3ECE6"/>
</g>
<defs>
<clipPath id="clip0_1345_471">
<rect width="38" height="37" fill="white"/>
</clipPath>
</defs>
</svg>
