<svg width="55" height="39" viewBox="0 0 55 39" fill="none" xmlns="http://www.w3.org/2000/svg">
<path d="M35.3218 19.5L36.2303 21.054C36.7802 20.73 37.1149 20.142 37.1149 19.5C37.1149 18.858 36.7802 18.27 36.2303 17.946L35.3218 19.5ZM21.5747 11.4L22.4832 9.846C21.9274 9.522 21.24 9.516 20.6841 9.834C20.1283 10.152 19.7816 10.752 19.7816 11.394H21.5747V11.4ZM21.5747 27.6H19.7816C19.7816 28.248 20.1283 28.842 20.6841 29.16C21.24 29.478 21.9274 29.478 22.4832 29.148L21.5747 27.594V27.6ZM4.5223 10.41C4.6777 7.086 7.15816 4.464 10.3798 4.218L10.1048 0.63C4.99448 1.014 1.17517 5.184 0.936094 10.236L4.51632 10.404L4.5223 10.41ZM4.24138 19.386C4.24138 16.986 4.37288 13.524 4.5223 10.404L0.942071 10.236C0.792646 13.362 0.661151 16.89 0.661151 19.386H4.24736H4.24138ZM4.52828 28.488C4.37885 25.338 4.24138 21.822 4.24138 19.392H0.655174C0.655174 21.918 0.792646 25.506 0.942071 28.662L4.5223 28.488H4.52828ZM10.2662 34.656C7.09839 34.368 4.6777 31.764 4.5223 28.482L0.942071 28.656C1.18115 33.642 4.90483 37.788 9.94943 38.244L10.2722 34.656H10.2662ZM27.5517 35.4C20.3554 35.4 14.4441 35.034 10.2662 34.656L9.94345 38.244C14.211 38.628 20.2299 39 27.5457 39V35.4H27.5517ZM44.8014 34.662C40.6294 35.034 34.7301 35.4 27.5517 35.4V39C34.8437 39 40.8566 38.628 45.1182 38.244L44.8014 34.656V34.662ZM50.5632 28.452C50.4078 31.752 47.9812 34.38 44.8014 34.662L45.1182 38.25C50.1807 37.794 53.9103 33.618 54.1434 28.62L50.5632 28.452ZM50.8621 19.386C50.8621 21.48 50.7186 25.122 50.5632 28.446L54.1434 28.614C54.2989 25.302 54.4483 21.576 54.4483 19.38H50.8621V19.386ZM50.5692 10.446C50.7246 13.74 50.8621 17.322 50.8621 19.392H54.4483C54.4483 17.226 54.3048 13.56 54.1494 10.278L50.5692 10.446ZM44.6938 4.212C47.9274 4.458 50.4138 7.104 50.5692 10.446L54.1494 10.278C53.9103 5.214 50.091 1.014 44.9628 0.624L44.6938 4.212ZM27.5517 3.6C34.772 3.6 40.5816 3.9 44.6938 4.212L44.9628 0.624C40.7669 0.306 34.8736 0 27.5517 0V3.6ZM10.3738 4.212C14.486 3.9 20.3076 3.6 27.5517 3.6V0C20.212 0 14.3007 0.306 10.1048 0.624L10.3798 4.212H10.3738ZM36.2303 17.946L22.4832 9.846L20.6662 12.948L34.4133 21.048L36.2303 17.946ZM22.4832 29.154L36.2303 21.054L34.4133 17.952L20.6662 26.052L22.4832 29.154ZM19.7816 11.4V27.6H23.3678V11.4H19.7816Z" fill="#F3E4D9"/>
</svg>
