<svg width="20" height="21" viewBox="0 0 20 21" fill="none" xmlns="http://www.w3.org/2000/svg">
<path d="M19.7769 15.0884L13.1585 13.5415C12.5851 14.1279 12.1857 14.8899 12.0451 15.7455C8.58864 14.5043 5.85518 11.6934 4.66362 8.1477C5.50708 8.00624 6.2613 7.59555 6.84146 7.00233L5.35535 0.239571C5.14114 0.161996 4.918 0.100392 4.68816 0.061604C4.46725 0.0205347 4.23965 0 4.00759 0C1.80743 0.00228163 0.022314 1.81618 0 4.05902C0 4.07271 0 4.0864 0 4.10237V4.14572C0 13.1719 7.13377 20.4936 15.95 20.537C15.9634 20.537 15.9768 20.537 15.9924 20.537H16.0058C18.2127 20.5278 20 18.698 20 16.4392C20 16.2133 19.9821 15.9897 19.9464 15.7729C19.9107 15.5379 19.8527 15.3075 19.7791 15.0884H19.7769Z" fill="white"/>
</svg>
